<?xml version="1.0" encoding="utf-8"?>
<!-- Generator: Adobe Illustrator 26.1.0, SVG Export Plug-In . SVG Version: 6.00 Build 0)  -->
<svg version="1.1" id="Layer_1" xmlns="http://www.w3.org/2000/svg" xmlns:xlink="http://www.w3.org/1999/xlink" x="0px" y="0px"
	 viewBox="0 0 255.6 19.6" style="enable-background:new 0 0 255.6 19.6;" xml:space="preserve">
<style type="text/css">
	.st0{fill:#09090F;}
</style>
<path class="st0" d="M16,0v4.4h-5.3v15.3H5.2V4.4H0V0H16z"/>
<path class="st0" d="M23.2,4.4v3.2h6.3v4.1h-6.3v3.5h7.2v4.4H17.8V0h12.6v4.4L23.2,4.4z"/>
<path class="st0" d="M38.3,4.4v3.2h6.3v4.1h-6.3v3.5h7.2v4.4H32.9V0h12.6v4.4L38.3,4.4z"/>
<path class="st0" d="M58,19.6l-4-7.2h-0.6v7.2H48V0h8.6c1.4,0,2.8,0.2,4,0.8c1,0.5,1.9,1.3,2.5,2.3c0.6,1,0.9,2.1,0.8,3.2
	c0,1.3-0.4,2.5-1.2,3.6c-0.8,1-2,1.8-3.3,2.1l4.5,7.6H58z M53.5,8.7h2.7c1.5,0,2.3-0.7,2.3-2c0-0.6-0.2-1.1-0.6-1.5
	c-0.5-0.4-1.1-0.6-1.7-0.6h-2.6V8.7z"/>
<path class="st0" d="M78.5,16.3h-7l-1.1,3.3h-5.7l7.2-19.5h6.3l7.1,19.5h-5.8L78.5,16.3z M77.1,12.3L75,5.9l-2.1,6.3H77.1z"/>
<path class="st0" d="M100.4,16.9C99.9,17.9,99,18.6,98,19c-1.2,0.5-2.5,0.8-3.9,0.8c-2,0.1-4-0.5-5.6-1.6c-1.5-1.1-2.4-2.8-2.4-4.7
	h5.8c0,0.6,0.2,1.1,0.6,1.5c0.4,0.3,0.9,0.5,1.4,0.5c0.4,0,0.8-0.1,1.1-0.4c0.3-0.3,0.4-0.6,0.4-1c0-0.6-0.3-1.1-0.8-1.4
	c-0.8-0.4-1.7-0.8-2.6-1.1C91,11.4,90,11,89,10.5c-0.8-0.4-1.5-1.1-2.1-1.8c-0.6-0.9-0.9-2-0.9-3.1c0-1.1,0.3-2.2,1-3.1
	c0.7-0.9,1.5-1.6,2.6-2c1.2-0.5,2.4-0.7,3.7-0.7c2.3,0,4.1,0.5,5.4,1.6c1.4,1.1,2.2,2.7,2.2,4.5h-5.8c0-0.5-0.2-1-0.6-1.4
	c-0.3-0.3-0.8-0.5-1.2-0.4c-0.4,0-0.7,0.1-1,0.3c-0.3,0.3-0.4,0.6-0.4,1c0,0.5,0.3,1.1,0.8,1.3c0.8,0.4,1.6,0.8,2.5,1.1
	C96.3,8,97.3,8.5,98.3,9c0.8,0.4,1.6,1.1,2.1,1.9c0.6,0.9,0.9,2,0.9,3.2C101.3,15,101,16,100.4,16.9z"/>
<path class="st0" d="M115.8,16.3h-6.9l-1.1,3.3H102l7.2-19.5h6.3l7.1,19.5h-5.8L115.8,16.3z M114.4,12.3l-2.1-6.3l-2.1,6.3H114.4z"
	/>
<path class="st0" d="M134.8,9.6l7.6,10h-6.6l-6.2-8.7v8.7h-5.5V0h5.5v8.5l6.2-8.5h6.5L134.8,9.6z"/>
<path class="st0" d="M167.7,0l-6.9,13.4v6.2h-5.4v-6.2L148.4,0h6.2l3.5,7.5l3.5-7.5L167.7,0z"/>
<path class="st0" d="M174.6,0v11.2c-0.1,0.9,0.2,1.8,0.8,2.6c0.6,0.6,1.4,1,2.2,0.9c0.9,0.1,1.7-0.3,2.3-0.9
	c0.5-0.7,0.8-1.6,0.8-2.5V0h5.4v11.2c0,1.6-0.3,3.3-1.1,4.7c-0.7,1.3-1.8,2.3-3.1,2.9c-1.4,0.7-2.9,1-4.4,1c-1.5,0-3-0.3-4.3-1
	c-1.2-0.6-2.3-1.6-2.9-2.9c-0.7-1.5-1.1-3.1-1.1-4.7V0H174.6z"/>
<path class="st0" d="M199.5,9.6l7.6,10h-6.6l-6.2-8.7v8.7h-5.5V0h5.5v8.5l6.2-8.5h6.5L199.5,9.6z"/>
<path class="st0" d="M221.3,16.3h-7l-1.1,3.3h-5.7l7.2-19.5h6.3l7.1,19.5h-5.8L221.3,16.3z M219.9,12.3l-2.1-6.3l-2.1,6.3H219.9z"/>
<path class="st0" d="M247.8,19.6h-5.5l-7.2-11v11h-5.5V0h5.5l7.2,11.1V0h5.5V19.6z"/>
<path class="st0" d="M255.6,14.3v5.3h-5.5v-5.3H255.6z"/>
</svg>
